<svg aria-hidden="true" style="position: absolute; width: 0; height: 0; overflow: hidden;" version="1.1" xmlns="http://www.w3.org/2000/svg" xmlns:xlink="http://www.w3.org/1999/xlink">
<defs>
<symbol id="icon-github" viewBox="0 0 24 28">
<title>github</title>
<path d="M12 2c6.625 0 12 5.375 12 12 0 5.297-3.437 9.797-8.203 11.391-0.609 0.109-0.828-0.266-0.828-0.578 0-0.391 0.016-1.687 0.016-3.297 0-1.125-0.375-1.844-0.812-2.219 2.672-0.297 5.484-1.313 5.484-5.922 0-1.313-0.469-2.375-1.234-3.219 0.125-0.313 0.531-1.531-0.125-3.187-1-0.313-3.297 1.234-3.297 1.234-0.953-0.266-1.984-0.406-3-0.406s-2.047 0.141-3 0.406c0 0-2.297-1.547-3.297-1.234-0.656 1.656-0.25 2.875-0.125 3.187-0.766 0.844-1.234 1.906-1.234 3.219 0 4.594 2.797 5.625 5.469 5.922-0.344 0.313-0.656 0.844-0.766 1.609-0.688 0.313-2.438 0.844-3.484-1-0.656-1.141-1.844-1.234-1.844-1.234-1.172-0.016-0.078 0.734-0.078 0.734 0.781 0.359 1.328 1.75 1.328 1.75 0.703 2.141 4.047 1.422 4.047 1.422 0 1 0.016 1.937 0.016 2.234 0 0.313-0.219 0.688-0.828 0.578-4.766-1.594-8.203-6.094-8.203-11.391 0-6.625 5.375-12 12-12zM4.547 19.234c0.031-0.063-0.016-0.141-0.109-0.187-0.094-0.031-0.172-0.016-0.203 0.031-0.031 0.063 0.016 0.141 0.109 0.187 0.078 0.047 0.172 0.031 0.203-0.031zM5.031 19.766c0.063-0.047 0.047-0.156-0.031-0.25-0.078-0.078-0.187-0.109-0.25-0.047-0.063 0.047-0.047 0.156 0.031 0.25 0.078 0.078 0.187 0.109 0.25 0.047zM5.5 20.469c0.078-0.063 0.078-0.187 0-0.297-0.063-0.109-0.187-0.156-0.266-0.094-0.078 0.047-0.078 0.172 0 0.281s0.203 0.156 0.266 0.109zM6.156 21.125c0.063-0.063 0.031-0.203-0.063-0.297-0.109-0.109-0.25-0.125-0.313-0.047-0.078 0.063-0.047 0.203 0.063 0.297 0.109 0.109 0.25 0.125 0.313 0.047zM7.047 21.516c0.031-0.094-0.063-0.203-0.203-0.25-0.125-0.031-0.266 0.016-0.297 0.109s0.063 0.203 0.203 0.234c0.125 0.047 0.266 0 0.297-0.094zM8.031 21.594c0-0.109-0.125-0.187-0.266-0.172-0.141 0-0.25 0.078-0.25 0.172 0 0.109 0.109 0.187 0.266 0.172 0.141 0 0.25-0.078 0.25-0.172zM8.937 21.438c-0.016-0.094-0.141-0.156-0.281-0.141-0.141 0.031-0.234 0.125-0.219 0.234 0.016 0.094 0.141 0.156 0.281 0.125s0.234-0.125 0.219-0.219z"></path>
</symbol>
<symbol id="icon-home2" viewBox="0 0 32 32">
<title>home2</title>
<path d="M16 1l-16 16 3 3 3-3v13h8v-6h4v6h8v-13l3 3 3-3-16-16zM16 14c-1.105 0-2-0.895-2-2s0.895-2 2-2c1.105 0 2 0.895 2 2s-0.895 2-2 2z"></path>
</symbol>
<symbol id="icon-phone" viewBox="0 0 32 32">
<title>phone</title>
<path d="M22 20c-2 2-2 4-4 4s-4-2-6-4-4-4-4-6 2-2 4-4-4-8-6-8-6 6-6 6c0 4 4.109 12.109 8 16s12 8 16 8c0 0 6-4 6-6s-6-8-8-6z"></path>
</symbol>
<symbol id="icon-equalizer" viewBox="0 0 32 32">
<title>equalizer</title>
<path d="M14 4v-0.5c0-0.825-0.675-1.5-1.5-1.5h-5c-0.825 0-1.5 0.675-1.5 1.5v0.5h-6v4h6v0.5c0 0.825 0.675 1.5 1.5 1.5h5c0.825 0 1.5-0.675 1.5-1.5v-0.5h18v-4h-18zM8 8v-4h4v4h-4zM26 13.5c0-0.825-0.675-1.5-1.5-1.5h-5c-0.825 0-1.5 0.675-1.5 1.5v0.5h-18v4h18v0.5c0 0.825 0.675 1.5 1.5 1.5h5c0.825 0 1.5-0.675 1.5-1.5v-0.5h6v-4h-6v-0.5zM20 18v-4h4v4h-4zM14 23.5c0-0.825-0.675-1.5-1.5-1.5h-5c-0.825 0-1.5 0.675-1.5 1.5v0.5h-6v4h6v0.5c0 0.825 0.675 1.5 1.5 1.5h5c0.825 0 1.5-0.675 1.5-1.5v-0.5h18v-4h-18v-0.5zM8 28v-4h4v4h-4z"></path>
</symbol>
<symbol id="icon-stats-bars" viewBox="0 0 32 32">
<title>stats-bars</title>
<path d="M0 26h32v4h-32zM4 18h4v6h-4zM10 10h4v14h-4zM16 16h4v8h-4zM22 4h4v20h-4z"></path>
</symbol>
<symbol id="icon-rocket" viewBox="0 0 32 32">
<title>rocket</title>
<path d="M22 2l-10 10h-6l-6 8c0 0 6.357-1.77 10.065-0.94l-10.065 12.94 13.184-10.255c1.839 4.208-1.184 10.255-1.184 10.255l8-6v-6l10-10 2-10-10 2z"></path>
</symbol>
<symbol id="icon-meter" viewBox="0 0 32 32">
<title>meter</title>
<path d="M16 2c8.837 0 16 7.163 16 16 0 6.025-3.331 11.271-8.25 14h-15.499c-4.92-2.729-8.25-7.975-8.25-14 0-8.837 7.163-16 16-16zM25.060 27.060c2.42-2.42 3.753-5.637 3.753-9.060h-2.813v-2h2.657c-0.219-1.406-0.668-2.755-1.33-4h-3.327v-2h2.009c-0.295-0.368-0.611-0.722-0.949-1.060-1.444-1.444-3.173-2.501-5.060-3.119v2.178h-2v-2.658c-0.656-0.102-1.324-0.155-2-0.155s-1.344 0.053-2 0.155v2.658h-2v-2.178c-1.887 0.617-3.615 1.674-5.060 3.119-0.338 0.338-0.654 0.692-0.949 1.060h2.009v2h-3.327c-0.662 1.245-1.111 2.594-1.33 4h2.657v2h-2.813c0 3.422 1.333 6.64 3.753 9.060 0.335 0.335 0.685 0.648 1.049 0.94h6.011l1.143-16h1.714l1.143 16h6.011c0.364-0.292 0.714-0.606 1.049-0.94z"></path>
</symbol>
<symbol id="icon-clipboard" viewBox="0 0 32 32">
<title>clipboard</title>
<path d="M29 4h-9c0-2.209-1.791-4-4-4s-4 1.791-4 4h-9c-0.552 0-1 0.448-1 1v26c0 0.552 0.448 1 1 1h26c0.552 0 1-0.448 1-1v-26c0-0.552-0.448-1-1-1zM16 2c1.105 0 2 0.895 2 2s-0.895 2-2 2c-1.105 0-2-0.895-2-2s0.895-2 2-2zM28 30h-24v-24h4v3c0 0.552 0.448 1 1 1h14c0.552 0 1-0.448 1-1v-3h4v24z"></path>
<path d="M14 26.828l-6.414-7.414 1.828-1.828 4.586 3.586 8.586-7.586 1.829 1.828z"></path>
</symbol>
<symbol id="icon-eye-blocked" viewBox="0 0 32 32">
<title>eye-blocked</title>
<path d="M29.561 0.439c-0.586-0.586-1.535-0.586-2.121 0l-6.318 6.318c-1.623-0.492-3.342-0.757-5.122-0.757-6.979 0-13.028 4.064-16 10 1.285 2.566 3.145 4.782 5.407 6.472l-4.968 4.968c-0.586 0.586-0.586 1.535 0 2.121 0.293 0.293 0.677 0.439 1.061 0.439s0.768-0.146 1.061-0.439l27-27c0.586-0.586 0.586-1.536 0-2.121zM13 10c1.32 0 2.44 0.853 2.841 2.037l-3.804 3.804c-1.184-0.401-2.037-1.521-2.037-2.841 0-1.657 1.343-3 3-3zM3.441 16c1.197-1.891 2.79-3.498 4.67-4.697 0.122-0.078 0.246-0.154 0.371-0.228-0.311 0.854-0.482 1.776-0.482 2.737 0 1.715 0.54 3.304 1.459 4.607l-1.904 1.904c-1.639-1.151-3.038-2.621-4.114-4.323z"></path>
<path d="M24 13.813c0-0.849-0.133-1.667-0.378-2.434l-10.056 10.056c0.768 0.245 1.586 0.378 2.435 0.378 4.418 0 8-3.582 8-8z"></path>
<path d="M25.938 9.062l-2.168 2.168c0.040 0.025 0.079 0.049 0.118 0.074 1.88 1.199 3.473 2.805 4.67 4.697-1.197 1.891-2.79 3.498-4.67 4.697-2.362 1.507-5.090 2.303-7.889 2.303-1.208 0-2.403-0.149-3.561-0.439l-2.403 2.403c1.866 0.671 3.873 1.036 5.964 1.036 6.978 0 13.027-4.064 16-10-1.407-2.81-3.504-5.2-6.062-6.938z"></path>
</symbol>
<symbol id="icon-mail2" viewBox="0 0 32 32">
<title>mail2</title>
<path d="M26.667 0h-21.333c-2.934 0-5.334 2.4-5.334 5.334v21.332c0 2.936 2.4 5.334 5.334 5.334h21.333c2.934 0 5.333-2.398 5.333-5.334v-21.332c0-2.934-2.399-5.334-5.333-5.334zM26.667 4c0.25 0 0.486 0.073 0.688 0.198l-11.355 9.388-11.355-9.387c0.202-0.125 0.439-0.198 0.689-0.198h21.333zM5.334 28c-0.060 0-0.119-0.005-0.178-0.013l7.051-9.78-0.914-0.914-7.293 7.293v-19.098l12 14.512 12-14.512v19.098l-7.293-7.293-0.914 0.914 7.051 9.78c-0.058 0.008-0.117 0.013-0.177 0.013h-21.333z"></path>
</symbol>
<symbol id="icon-mail4" viewBox="0 0 32 32">
<title>mail4</title>
<path d="M16 0c-8.837 0-16 7.163-16 16s7.163 16 16 16 16-7.163 16-16-7.163-16-16-16zM8 8h16c0.286 0 0.563 0.061 0.817 0.177l-8.817 10.286-8.817-10.287c0.254-0.116 0.531-0.177 0.817-0.177zM6 22v-12c0-0.042 0.002-0.084 0.004-0.125l5.864 6.842-5.8 5.8c-0.045-0.167-0.069-0.34-0.069-0.517zM24 24h-16c-0.177 0-0.35-0.024-0.517-0.069l5.691-5.691 2.826 3.297 2.826-3.297 5.691 5.691c-0.167 0.045-0.34 0.069-0.517 0.069zM26 22c0 0.177-0.024 0.35-0.069 0.517l-5.8-5.8 5.865-6.842c0.003 0.041 0.004 0.083 0.004 0.125v12z"></path>
</symbol>
<symbol id="icon-eye" viewBox="0 0 20 20">
<title>eye</title>
<path d="M10 4.4c-6.561 0-10 4.832-10 5.6 0 0.766 3.439 5.6 10 5.6s10-4.834 10-5.6c0-0.768-3.44-5.6-10-5.6zM10 14.307c-2.455 0-4.445-1.928-4.445-4.307s1.99-4.309 4.445-4.309c2.455 0 4.444 1.93 4.444 4.309s-1.989 4.307-4.444 4.307zM10 10c-0.407-0.447 0.663-2.154 0-2.154-1.228 0-2.223 0.965-2.223 2.154s0.995 2.154 2.223 2.154c1.227 0 2.223-0.965 2.223-2.154 0-0.547-1.877 0.379-2.223 0z"></path>
</symbol>
<symbol id="icon-visibility" viewBox="0 0 24 24">
<title>visibility</title>
<path d="M12 9c1.641 0 3 1.359 3 3s-1.359 3-3 3-3-1.359-3-3 1.359-3 3-3zM12 17.016c2.766 0 5.016-2.25 5.016-5.016s-2.25-5.016-5.016-5.016-5.016 2.25-5.016 5.016 2.25 5.016 5.016 5.016zM12 4.5c5.016 0 9.281 3.094 11.016 7.5-1.734 4.406-6 7.5-11.016 7.5s-9.281-3.094-11.016-7.5c1.734-4.406 6-7.5 11.016-7.5z"></path>
</symbol>
<symbol id="icon-visibility_off" viewBox="0 0 24 24">
<title>visibility_off</title>
<path d="M11.859 9h0.141c1.641 0 3 1.359 3 3v0.188zM7.547 9.797c-0.328 0.656-0.563 1.406-0.563 2.203 0 2.766 2.25 5.016 5.016 5.016 0.797 0 1.547-0.234 2.203-0.563l-1.547-1.547c-0.188 0.047-0.422 0.094-0.656 0.094-1.641 0-3-1.359-3-3 0-0.234 0.047-0.469 0.094-0.656zM2.016 4.266l1.266-1.266 17.719 17.719-1.266 1.266c-1.124-1.11-2.256-2.213-3.375-3.328-1.359 0.563-2.813 0.844-4.359 0.844-5.016 0-9.281-3.094-11.016-7.5 0.797-1.969 2.109-3.656 3.75-4.969-0.914-0.914-1.812-1.844-2.719-2.766zM12 6.984c-0.656 0-1.266 0.141-1.828 0.375l-2.156-2.156c1.219-0.469 2.578-0.703 3.984-0.703 5.016 0 9.234 3.094 10.969 7.5-0.75 1.875-1.922 3.469-3.422 4.734l-2.906-2.906c0.234-0.563 0.375-1.172 0.375-1.828 0-2.766-2.25-5.016-5.016-5.016z"></path>
</symbol>

<symbol id="icon-googledrive" viewBox="0 0 32 32">
<title>googledrive</title>
<path fill="#4386fc" style="fill: var(--color2, #4386fc)" d="M5.911 29.861l5.333-9.239h20.756l-5.333 9.239h-20.756zM10.665 20.623l-5.331 9.239-5.335-9.239 10.38-17.983 5.332 9.241-5.047 8.741zM31.711 20.123h-10.665l-10.38-17.983h10.669l10.376 17.981z"></path>
</symbol>

<symbol id="icon-facebook" viewBox="0 0 32 32">
<title>facebook</title>
<path fill="#3b5998" style="fill: var(--color3, #3b5998)" d="M30.235 0h-28.469c-0.975 0-1.765 0.791-1.765 1.765v28.469c0 0.976 0.791 1.765 1.765 1.765h15.325v-12.392h-4.172v-4.828h4.172v-3.567c0-4.132 2.525-6.38 6.212-6.38 1.767 0 3.285 0.129 3.728 0.188v4.32h-2.561c-2 0-2.389 0.961-2.389 2.361v3.081h4.779l-0.62 4.84h-4.159v12.376h8.153c0.977 0 1.767-0.789 1.767-1.765v-28.469c0-0.975-0.789-1.765-1.765-1.765z"></path>
</symbol>

<symbol id="icon-codepen" viewBox="0 0 32 32">
<title>codepen</title>
<path d="M32 10.909l-0.024-0.116-0.023-0.067c-0.013-0.032-0.024-0.067-0.040-0.1-0.004-0.024-0.020-0.045-0.027-0.067l-0.047-0.089-0.040-0.067-0.059-0.080-0.061-0.060-0.080-0.060-0.061-0.040-0.080-0.059-0.059-0.053-0.020-0.027-14.607-9.772c-0.463-0.309-1.061-0.309-1.523 0l-14.805 9.883-0.051 0.053-0.067 0.075-0.049 0.060-0.067 0.080c-0.027 0.023-0.040 0.040-0.040 0.061l-0.067 0.080-0.027 0.080c-0.027 0.013-0.027 0.053-0.040 0.093l-0.013 0.067c-0.025 0.041-0.025 0.081-0.025 0.121v9.996c0 0.059 0.004 0.12 0.013 0.18l0.013 0.061c0.007 0.040 0.013 0.080 0.027 0.115l0.020 0.067c0.013 0.036 0.021 0.071 0.036 0.1l0.029 0.067c0 0.013 0.020 0.053 0.040 0.080l0.040 0.053c0.020 0.013 0.040 0.053 0.060 0.080l0.040 0.053 0.053 0.053c0.013 0.017 0.013 0.040 0.040 0.040l0.080 0.056 0.053 0.040 0.013 0.019 14.627 9.773c0.219 0.16 0.5 0.217 0.76 0.217s0.52-0.080 0.76-0.24l14.877-9.875 0.069-0.077 0.044-0.060 0.053-0.080 0.040-0.067 0.040-0.093 0.021-0.069 0.040-0.103 0.020-0.060 0.040-0.107v-10c0-0.067 0-0.127-0.021-0.187l-0.019-0.060 0.059 0.004zM16.013 19.283l-4.867-3.253 4.867-3.256 4.867 3.253-4.867 3.253zM14.635 10.384l-5.964 3.987-4.817-3.221 10.781-7.187v6.424zM6.195 16.028l-3.443 2.307v-4.601l3.443 2.301zM8.671 17.695l5.964 3.987v6.427l-10.781-7.188 4.824-3.223v-0.005zM17.387 21.681l5.965-3.973 4.817 3.227-10.783 7.187v-6.427zM25.827 16.041l3.444-2.293v4.608l-3.444-2.307zM23.353 14.388l-5.964-3.988v-6.44l10.78 7.187-4.816 3.224z"></path>
</symbol>

<symbol id="icon-gitlab" viewBox="0 0 32 32">
<title>gitlab</title>
<path fill="#e24329" style="fill: var(--color2, #e24329)" d="M31.94 18.116l-1.789-5.513-3.552-10.919c-0.18-0.564-0.973-0.564-1.156 0l-3.552 10.916h-11.781l-3.551-10.916c-0.181-0.564-0.979-0.564-1.159-0.004l-3.552 10.919-1.789 5.517c-0.161 0.5 0.019 1.052 0.441 1.364l15.5 11.259 15.5-11.257c0.424-0.313 0.604-0.863 0.44-1.365z"></path>
</symbol>

<symbol id="icon-linkedin" viewBox="0 0 32 32">
<title>linkedin</title>
<path fill="#0077b5" style="fill: var(--color5, #0077b5)" d="M27.263 27.269h-4.739v-7.425c0-1.771-0.036-4.049-2.469-4.049-2.471 0-2.848 1.927-2.848 3.919v7.556h-4.739v-15.269h4.552v2.081h0.061c0.636-1.2 2.183-2.467 4.493-2.467 4.801 0 5.689 3.16 5.689 7.273v8.381zM7.116 9.911c-1.525 0-2.751-1.235-2.751-2.753 0-1.517 1.227-2.751 2.751-2.751 1.52 0 2.752 1.233 2.752 2.751 0 1.519-1.233 2.753-2.752 2.753zM9.492 27.269h-4.752v-15.269h4.752v15.269zM29.633 0h-27.272c-1.305 0-2.361 1.032-2.361 2.305v27.389c0 1.275 1.056 2.305 2.361 2.305h27.268c1.304 0 2.371-1.031 2.371-2.305v-27.389c0-1.273-1.067-2.305-2.371-2.305h0.004z"></path>
</symbol>

<symbol id="icon-html5" viewBox="0 0 32 32">
<title>html5</title>
<path fill="#e34f26" style="fill: var(--color3, #e34f26)" d="M2 0h28l-2.547 28.751-11.484 3.249-11.419-3.251-2.551-28.749zM11.375 13l-0.309-3.624 13.412 0.004 0.307-3.496-17.568-0.004 0.931 10.68h12.168l-0.435 4.568-3.88 1.072-3.94-1.080-0.251-2.813h-3.479l0.44 5.561 7.229 1.933 7.172-1.924 0.992-10.876h-12.789z"></path>
</symbol>

<symbol id="icon-css3" viewBox="0 0 32 32">
<title>css3</title>
<path fill="#1572b6" style="fill: var(--color7, #1572b6)" d="M2 0h28l-2.547 28.751-11.484 3.249-11.42-3.251-2.549-28.749zM24.787 5.884l-17.573-0.004 0.284 3.496 13.5 0.003-0.34 3.621h-8.853l0.32 3.431h8.243l-0.488 4.697-3.88 1.072-3.941-1.080-0.251-2.813h-3.48l0.387 5.14 7.287 2.271 7.164-2.040 1.623-17.792z"></path>
</symbol>

<symbol id="icon-javascript" viewBox="0 0 32 32">
<title>javascript</title>
<path fill="#f7df1e" style="fill: var(--color2, #f7df1e)" d="M0 0h32v32h-32v-32zM29.379 24.368c-0.233-1.46-1.184-2.687-4.004-3.831-0.981-0.46-2.072-0.78-2.396-1.52-0.121-0.44-0.14-0.68-0.061-0.94 0.2-0.861 1.22-1.12 2.020-0.88 0.52 0.16 1 0.56 1.301 1.2 1.379-0.901 1.379-0.901 2.34-1.5-0.36-0.56-0.539-0.801-0.781-1.040-0.84-0.94-1.959-1.42-3.779-1.379l-0.94 0.119c-0.901 0.22-1.76 0.7-2.28 1.34-1.52 1.721-1.081 4.721 0.759 5.961 1.82 1.36 4.481 1.659 4.821 2.94 0.32 1.56-1.16 2.060-2.621 1.88-1.081-0.24-1.68-0.781-2.34-1.781l-2.44 1.401c0.28 0.64 0.6 0.919 1.080 1.479 2.32 2.341 8.12 2.221 9.161-1.339 0.039-0.12 0.32-0.94 0.099-2.2l0.061 0.089zM17.401 14.708h-2.997c0 2.584-0.012 5.152-0.012 7.74 0 1.643 0.084 3.151-0.184 3.615-0.44 0.919-1.573 0.801-2.088 0.64-0.528-0.261-0.796-0.621-1.107-1.14-0.084-0.14-0.147-0.261-0.169-0.261l-2.433 1.5c0.407 0.84 1 1.563 1.765 2.023 1.14 0.68 2.672 0.9 4.276 0.54 1.044-0.301 1.944-0.921 2.415-1.881 0.68-1.24 0.536-2.76 0.529-4.461 0.016-2.739 0-5.479 0-8.239l0.005-0.075z"></path>
</symbol>

<symbol id="icon-git" viewBox="0 0 32 32">
<title>git</title>
<path fill="#f05032" style="fill: var(--color4, #f05032)" d="M31.395 14.573l-13.972-13.971c-0.805-0.804-2.109-0.804-2.917 0l-2.895 2.9 3.68 3.68c0.86-0.287 1.839-0.093 2.519 0.588 0.688 0.687 0.877 1.677 0.584 2.533l3.544 3.547c0.86-0.297 1.849-0.104 2.533 0.58 0.961 0.96 0.961 2.512 0 3.472-0.959 0.959-2.508 0.959-3.467 0-0.719-0.721-0.899-1.783-0.539-2.661l-3.319-3.301v8.7c0.235 0.115 0.456 0.271 0.651 0.464 0.951 0.961 0.951 2.511 0 3.467-0.959 0.961-2.519 0.961-3.479 0-0.959-0.959-0.959-2.505 0-3.464 0.243-0.24 0.516-0.421 0.807-0.541v-8.785c-0.289-0.121-0.565-0.296-0.8-0.535-0.727-0.727-0.901-1.789-0.528-2.679l-3.616-3.633-9.581 9.575c-0.8 0.807-0.8 2.112 0 2.919l13.973 13.969c0.805 0.805 2.109 0.805 2.915 0l13.907-13.907c0.807-0.804 0.807-2.109 0-2.916z"></path>
</symbol>

<symbol id="icon-react" viewBox="0 0 32 32">
<title>react</title>
<path fill="#61dafb" style="fill: var(--color9, #61dafb)" d="M18.852 16c0 1.575-1.277 2.852-2.852 2.852s-2.852-1.277-2.852-2.852c0-1.575 1.277-2.852 2.852-2.852s2.852 1.277 2.852 2.852z"></path>
<path fill="#61dafb" style="fill: var(--color9, #61dafb)" d="M8.011 21.673l-0.629-0.16c-4.691-1.185-7.381-3.197-7.381-5.519s2.691-4.333 7.381-5.519l0.629-0.159 0.177 0.624c0.545 1.86 1.163 3.443 1.899 4.957l-0.082-0.186 0.135 0.284-0.135 0.284c-0.656 1.329-1.275 2.912-1.761 4.551l-0.056 0.22-0.177 0.623zM7.089 11.933c-3.565 1.001-5.753 2.533-5.753 4.061 0 1.527 2.188 3.059 5.753 4.061 0.512-1.62 1.046-2.965 1.662-4.263l-0.086 0.202c-0.531-1.098-1.066-2.443-1.511-3.828l-0.065-0.234zM23.989 21.673l-0.177-0.625c-0.544-1.859-1.162-3.441-1.9-4.954l0.081 0.184-0.135-0.284 0.135-0.284c0.656-1.329 1.275-2.911 1.762-4.55l0.056-0.221 0.177-0.624 0.631 0.159c4.689 1.185 7.38 3.197 7.38 5.52s-2.691 4.333-7.38 5.519l-0.631 0.16zM23.335 15.995c0.64 1.385 1.169 2.747 1.576 4.061 3.567-1.003 5.753-2.535 5.753-4.061 0-1.528-2.188-3.059-5.753-4.061-0.511 1.619-1.045 2.963-1.662 4.262l0.086-0.2z"></path>
<path fill="#61dafb" style="fill: var(--color9, #61dafb)" d="M7.080 11.927l-0.177-0.623c-1.319-4.648-0.919-7.979 1.097-9.141 1.977-1.141 5.152 0.207 8.479 3.621l0.453 0.465-0.453 0.465c-1.146 1.19-2.207 2.482-3.162 3.853l-0.068 0.103-0.18 0.257-0.313 0.027c-1.875 0.151-3.596 0.439-5.264 0.86l0.218-0.047-0.629 0.159zM9.608 3.087c-0.357 0-0.673 0.077-0.94 0.231-1.325 0.764-1.56 3.42-0.647 7.004 1.21-0.285 2.681-0.521 4.18-0.658l0.131-0.010c0.894-1.264 1.792-2.37 2.756-3.414l-0.020 0.022c-2.080-2.025-4.049-3.175-5.46-3.175zM22.393 30.236c-0.001 0-0.001 0 0 0-1.9 0-4.34-1.431-6.872-4.031l-0.453-0.465 0.453-0.465c1.146-1.19 2.206-2.482 3.16-3.854l0.068-0.103 0.18-0.257 0.312-0.027c1.875-0.15 3.597-0.438 5.267-0.858l-0.218 0.046 0.629-0.159 0.179 0.624c1.316 4.645 0.917 7.977-1.099 9.139-0.449 0.259-0.988 0.411-1.562 0.411-0.016 0-0.031-0-0.047-0l0.002 0zM16.932 25.728c2.080 2.025 4.049 3.175 5.46 3.175h0.001c0.356 0 0.673-0.077 0.939-0.231 1.325-0.764 1.561-3.421 0.647-7.005-1.212 0.286-2.682 0.522-4.182 0.658l-0.13 0.010c-0.893 1.265-1.791 2.371-2.755 3.416l0.020-0.022z"></path>
<path fill="#61dafb" style="fill: var(--color9, #61dafb)" d="M24.92 11.927l-0.629-0.159c-1.453-0.376-3.175-0.664-4.939-0.806l-0.111-0.007-0.312-0.027-0.18-0.257c-1.021-1.474-2.082-2.766-3.237-3.966l0.009 0.010-0.453-0.465 0.453-0.465c3.325-3.413 6.499-4.761 8.479-3.621 2.016 1.163 2.416 4.493 1.099 9.14l-0.179 0.624zM19.667 9.653c1.523 0.139 2.969 0.364 4.312 0.668 0.915-3.584 0.679-6.24-0.647-7.004-1.317-0.761-3.793 0.405-6.4 2.944 0.943 1.022 1.841 2.128 2.666 3.289l0.069 0.103zM9.608 30.236c-0.014 0-0.030 0-0.046 0-0.574 0-1.113-0.152-1.577-0.419l0.015 0.008c-2.016-1.161-2.416-4.492-1.097-9.139l0.176-0.624 0.629 0.159c1.54 0.388 3.239 0.661 5.047 0.812l0.313 0.027 0.179 0.257c1.022 1.475 2.083 2.767 3.239 3.967l-0.010-0.010 0.453 0.465-0.453 0.465c-2.531 2.6-4.971 4.031-6.868 4.031zM8.021 21.667c-0.915 3.584-0.679 6.241 0.647 7.005 1.316 0.751 3.791-0.407 6.4-2.944-0.943-1.022-1.841-2.129-2.667-3.29l-0.069-0.103c-1.629-0.146-3.099-0.382-4.534-0.711l0.224 0.043z"></path>
<path fill="#61dafb" style="fill: var(--color9, #61dafb)" d="M16 22.504c-1.097 0-2.225-0.048-3.355-0.141l-0.313-0.027-0.18-0.257c-0.544-0.768-1.139-1.691-1.697-2.639l-0.103-0.19c-0.452-0.758-0.971-1.732-1.45-2.728l-0.105-0.243-0.133-0.284 0.133-0.284c0.584-1.239 1.102-2.212 1.658-3.161l-0.103 0.191c0.552-0.955 1.159-1.907 1.8-2.829l0.18-0.257 0.313-0.027c1.005-0.090 2.174-0.142 3.355-0.142s2.35 0.052 3.505 0.153l-0.15-0.011 0.312 0.027 0.179 0.257c1.177 1.666 2.294 3.567 3.252 5.56l0.104 0.24 0.135 0.284-0.135 0.284c-1.058 2.232-2.176 4.133-3.439 5.925l0.083-0.125-0.179 0.257-0.312 0.027c-1.129 0.093-2.259 0.141-3.356 0.141zM13.071 21.059c1.973 0.148 3.885 0.148 5.86 0 1.004-1.445 1.978-3.104 2.827-4.836l0.101-0.228c-0.947-1.958-1.922-3.617-3.012-5.19l0.083 0.126c-0.877-0.071-1.898-0.111-2.929-0.111s-2.052 0.040-3.063 0.119l0.134-0.008c-1.008 1.447-1.983 3.106-2.83 4.84l-0.099 0.224c0.951 1.96 1.926 3.619 3.014 5.193l-0.085-0.13z"></path>
</symbol>

<symbol id="icon-node-dot-js" viewBox="0 0 32 32">
<title>node-dot-js</title>
<path fill="#393" style="fill: var(--color4, #393)" d="M15.247 0.204l-12.493 7.24c-0.467 0.271-0.752 0.771-0.751 1.311v14.485c0 0.539 0.287 1.040 0.752 1.309l12.493 7.247c0.467 0.271 1.040 0.271 1.507 0l12.488-7.244c0.467-0.273 0.752-0.771 0.753-1.309v-14.488c0-0.539-0.288-1.040-0.755-1.312l-12.485-7.24c-0.467-0.271-1.043-0.271-1.507 0z"></path>
</symbol>

<symbol id="icon-php" viewBox="0 0 32 320 0 32 32">
<title>php</title>
<path fill="#777bb4" style="fill: var(--color9, #777bb4)" d="M9.347 13.609h-1.259l-0.687 3.531h1.117c0.741 0 1.293-0.14 1.656-0.419 0.363-0.28 0.607-0.745 0.733-1.399 0.123-0.627 0.067-1.069-0.165-1.327-0.233-0.257-0.697-0.387-1.396-0.387z"></path>
<path fill="#777bb4" style="fill: var(--color9, #777bb4)" d="M16 7.584c-8.836 0-16 3.768-16 8.416s7.164 8.417 16 8.417 16-3.769 16-8.417c0-4.648-7.164-8.416-16-8.416zM11.653 17.519c-0.348 0.333-0.767 0.584-1.223 0.735-0.448 0.144-1.020 0.219-1.713 0.219h-1.575l-0.436 2.241h-1.837l1.64-8.435h3.533c1.063 0 1.837 0.279 2.325 0.837 0.488 0.557 0.635 1.336 0.44 2.336-0.082 0.425-0.223 0.803-0.416 1.148l0.010-0.019c-0.191 0.34-0.44 0.653-0.748 0.937zM17.019 18.472l0.724-3.732c0.084-0.424 0.052-0.715-0.091-0.868-0.143-0.155-0.448-0.232-0.916-0.232h-1.456l-0.939 4.833h-1.824l1.64-8.436h1.823l-0.436 2.243h1.624c1.023 0 1.727 0.179 2.115 0.535s0.504 0.933 0.351 1.732l-0.763 3.925h-1.852zM27.148 15.452c-0.080 0.425-0.221 0.803-0.416 1.148l0.010-0.018c-0.191 0.34-0.44 0.653-0.748 0.937-0.338 0.323-0.746 0.574-1.2 0.728l-0.023 0.007c-0.448 0.144-1.020 0.219-1.715 0.219h-1.573l-0.436 2.243h-1.837l1.64-8.435h3.532c1.063 0 1.837 0.279 2.325 0.837 0.488 0.556 0.636 1.335 0.441 2.335z"></path>
<path fill="#777bb4" style="fill: var(--color9, #777bb4)" d="M23.688 13.609h-1.257l-0.688 3.531h1.117c0.743 0 1.295-0.14 1.656-0.419 0.363-0.28 0.607-0.745 0.735-1.399 0.123-0.627 0.065-1.069-0.167-1.327s-0.699-0.387-1.396-0.387z"></path>
</symbol>

<symbol id="icon-laravel" viewBox="0 0 32 32">
<title>laravel</title>
<path fill="#e74430" style="fill: var(--color7, #e74430)" d="M8.616 17.699l18.267-4.376c-1.011-1.436-5.607-7.951-6.049-8.569-0.5-0.699 0.011-1.025 0.823-1.16 0.811-0.139 7.8-1.312 8.397-1.399 0.503-0.073 0.92-0.236 1.616 0.409-0.64-1.523-2.151-2.593-3.911-2.593h-23.496c-2.071 0-3.792 1.479-4.164 3.443l8.517 14.245z"></path>
<path fill="#e74430" style="fill: var(--color7, #e74430)" d="M30.316 3.843c-0.275 0.059-6.353 1.159-6.727 1.209-0.373 0.049-0.251 0.259-0.099 0.473l5.348 7.336 3.161-0.777v-6.841c-0.44-0.56-0.759-0.972-0.835-1.081-0.34-0.459-0.576-0.383-0.849-0.319zM32 20.172c-1.553-2.131-3.248-4.448-3.409-4.677-0.221-0.32-0.34-0.38-0.864-0.212l-17.808 4.636s5.467 9.472 5.885 10.072c0.42 0.608 0.677 0.557 1.004 0.419 0.241-0.107 10.395-3.539 15.191-5.163v-5.071l0.001-0.004zM32 17.039v-2.677l-1.667 0.445 1.667 2.232zM21.068 31.989h6.692c2.233 0 4.063-1.725 4.228-3.915-3.417 1.236-7.844 2.819-10.921 3.915zM7.396 20.573l-7.396 1.927v5.248c0.023 2.343 1.921 4.243 4.26 4.243h9.592c-1.255-2.049-4.671-8.204-6.444-11.417zM5.915 17.815l-5.892-10.176v12.131l5.771-1.377c0.471-0.109 0.359-0.171 0.127-0.576z"></path>
<path fill="#e74430" style="fill: var(--color7, #e74430)" d="M30.193 14.612l1.807-0.491v0.84l-1.239 0.415-0.568-0.764z"></path>
</symbol>

<symbol id="icon-visualstudiocode" viewBox="0 0 32 32">
<title>visualstudiocode</title>
<path fill="#007acc" style="fill: var(--color14, #007acc)" d="M32 3.333v25.333l-8 3.333-24-7.333v-0.748l24 2.060v-25.979zM1.333 17.481l4.513-4.148-4.513-4.148 1.891-1.103 4.58 3.451 8.196-7.533 4 1.941v14.784l-4 1.941-8.196-7.533-4.579 3.452zM10.192 13.333l5.808 4.377v-8.755z"></path>
</symbol>

<symbol id="icon-microsoftexcel" viewBox="0 0 32 32">
<title>microsoftexcel</title>
<path fill="#217346" style="fill: var(--color3, #217346)" d="M31.404 4.136h-10.72v1.984h3.16v3.139h-3.16v1h3.16v3.143h-3.16v1.028h3.16v2.972h-3.16v1.191h3.16v2.979h-3.16v1.191h3.16v2.996h-3.16v2.185h10.72c0.169-0.051 0.311-0.251 0.424-0.597 0.113-0.349 0.172-0.633 0.172-0.848v-21.999c0-0.171-0.059-0.273-0.172-0.309-0.113-0.035-0.255-0.053-0.424-0.053zM30.013 25.755h-5.143v-2.993h5.143v2.993zM30.013 21.571h-5.143v-2.98h5.143v2.98zM30.013 17.4h-5.143v-2.959h5.143v2.959zM30.013 13.4h-5.143v-3.139h5.143v3.139zM30.013 9.241h-5.143v-3.12h5.143v3.12zM0 3.641v24.801l18.88 3.265v-31.416l-18.88 3.349zM11.191 22.403c-0.072-0.195-0.411-1.021-1.011-2.484-0.599-1.461-0.96-2.312-1.065-2.555h-0.033l-2.025 4.82-2.707-0.183 3.211-6-2.94-6 2.76-0.145 1.824 4.695h0.036l2.060-4.908 2.852-0.18-3.396 6.493 3.5 6.624-3.065-0.177z"></path>
</symbol>

<symbol id="icon-mysql" viewBox="0 0 32 32">
<title>mysql</title>
<path fill="#4479a1" style="fill: var(--color15, #4479a1)" d="M21.873 7.568c-0.153 0-0.257 0.019-0.365 0.044v0.017h0.019c0.072 0.139 0.195 0.24 0.285 0.364 0.072 0.143 0.133 0.285 0.205 0.427l0.019-0.020c0.125-0.088 0.187-0.229 0.187-0.444-0.053-0.063-0.061-0.125-0.107-0.187-0.053-0.089-0.168-0.133-0.24-0.204zM7.693 25.16h-1.236c-0.040-2.083-0.164-4.040-0.36-5.88h-0.011l-1.88 5.88h-0.94l-1.867-5.88h-0.013c-0.137 1.764-0.224 3.724-0.26 5.88h-1.127c0.073-2.621 0.256-5.080 0.547-7.373h1.533l1.78 5.419h0.011l1.796-5.419h1.46c0.323 2.687 0.512 5.147 0.571 7.373zM13.049 19.72c-0.504 2.727-1.168 4.711-1.989 5.947-0.643 0.955-1.347 1.431-2.111 1.431-0.204 0-0.453-0.061-0.755-0.184v-0.659c0.147 0.023 0.32 0.035 0.515 0.035 0.357 0 0.644-0.1 0.863-0.296 0.263-0.24 0.393-0.509 0.393-0.807 0-0.207-0.103-0.627-0.307-1.259l-1.352-4.208h1.213l0.969 3.147c0.219 0.715 0.311 1.213 0.273 1.497 0.533-1.419 0.904-2.969 1.113-4.644h1.173zM29.483 25.16h-3.507v-7.373h1.18v6.467h2.327zM25.056 25.34l-1.355-0.667c0.12-0.101 0.236-0.211 0.34-0.333 0.577-0.675 0.864-1.677 0.864-3.004 0-2.44-0.957-3.661-2.873-3.661-0.939 0-1.672 0.309-2.2 0.929-0.573 0.677-0.861 1.675-0.861 2.993 0 1.296 0.253 2.248 0.765 2.853 0.467 0.547 1.169 0.82 2.111 0.82 0.352 0 0.675-0.044 0.967-0.131l1.767 1.029 0.48-0.829zM20.667 23.684c-0.3-0.48-0.449-1.253-0.449-2.315 0-1.857 0.565-2.787 1.693-2.787 0.591 0 1.027 0.223 1.303 0.667 0.299 0.483 0.448 1.248 0.448 2.297 0 1.872-0.565 2.811-1.693 2.811-0.593 0-1.027-0.223-1.304-0.667zM18.456 23.117c0 0.627-0.229 1.141-0.688 1.541s-1.071 0.6-1.845 0.6c-0.724 0-1.419-0.229-2.097-0.687l0.316-0.635c0.584 0.293 1.111 0.437 1.587 0.437 0.443 0 0.791-0.097 1.044-0.293 0.251-0.196 0.4-0.472 0.4-0.82 0-0.44-0.307-0.813-0.864-1.127-0.517-0.284-1.551-0.876-1.551-0.876-0.563-0.409-0.843-0.848-0.843-1.569 0-0.6 0.209-1.080 0.627-1.447 0.42-0.371 0.96-0.553 1.627-0.553 0.683 0 1.307 0.181 1.867 0.547l-0.284 0.635c-0.48-0.203-0.953-0.307-1.419-0.307-0.377 0-0.669 0.091-0.872 0.275-0.204 0.181-0.331 0.413-0.331 0.699 0 0.437 0.312 0.813 0.888 1.133 0.524 0.287 1.583 0.893 1.583 0.893 0.577 0.407 0.864 0.84 0.864 1.557z"></path>
<path fill="#4479a1" style="fill: var(--color15, #4479a1)" d="M30.965 15.315c-0.713-0.019-1.267 0.053-1.729 0.251-0.133 0.053-0.347 0.053-0.365 0.223 0.073 0.071 0.084 0.187 0.147 0.285 0.107 0.179 0.291 0.417 0.461 0.543 0.187 0.147 0.373 0.288 0.569 0.413 0.347 0.213 0.74 0.34 1.080 0.555 0.193 0.125 0.391 0.284 0.587 0.417 0.097 0.067 0.16 0.187 0.285 0.229v-0.027c-0.061-0.080-0.080-0.196-0.14-0.285-0.089-0.089-0.179-0.169-0.267-0.257-0.259-0.347-0.58-0.649-0.927-0.9-0.285-0.195-0.909-0.467-1.027-0.793l-0.017-0.019c0.195-0.017 0.427-0.088 0.613-0.141 0.303-0.080 0.58-0.063 0.893-0.141 0.141-0.036 0.284-0.080 0.427-0.125v-0.080c-0.16-0.16-0.28-0.377-0.445-0.527-0.453-0.393-0.956-0.776-1.472-1.097-0.28-0.179-0.635-0.293-0.929-0.445-0.107-0.053-0.285-0.080-0.347-0.169-0.16-0.195-0.253-0.453-0.367-0.685-0.256-0.491-0.507-1.033-0.729-1.551-0.16-0.349-0.257-0.697-0.453-1.017-0.92-1.516-1.916-2.435-3.448-3.333-0.329-0.187-0.724-0.267-1.141-0.365-0.223-0.011-0.445-0.027-0.667-0.036-0.147-0.063-0.288-0.232-0.413-0.313-0.507-0.32-1.819-1.013-2.192-0.096-0.24 0.579 0.356 1.149 0.563 1.443 0.153 0.204 0.347 0.437 0.453 0.667 0.063 0.155 0.080 0.313 0.143 0.475 0.141 0.392 0.276 0.829 0.463 1.196 0.097 0.187 0.204 0.383 0.329 0.551 0.072 0.097 0.195 0.143 0.223 0.303-0.125 0.181-0.133 0.445-0.205 0.667-0.32 1.009-0.195 2.257 0.259 3 0.143 0.221 0.483 0.712 0.937 0.524 0.4-0.16 0.312-0.667 0.427-1.113 0.027-0.107 0.009-0.177 0.064-0.249v0.020c0.125 0.251 0.251 0.489 0.365 0.74 0.275 0.437 0.755 0.891 1.156 1.193 0.213 0.16 0.383 0.437 0.649 0.536v-0.027h-0.020c-0.057-0.077-0.133-0.115-0.205-0.177-0.16-0.16-0.34-0.356-0.467-0.533-0.373-0.503-0.703-1.053-0.996-1.624-0.147-0.28-0.269-0.581-0.387-0.857-0.053-0.107-0.053-0.267-0.143-0.32-0.133 0.195-0.329 0.364-0.427 0.604-0.169 0.384-0.187 0.856-0.251 1.347-0.036 0.009-0.019 0-0.036 0.019-0.285-0.069-0.383-0.365-0.489-0.613-0.267-0.633-0.311-1.651-0.080-2.38 0.063-0.187 0.329-0.776 0.223-0.955-0.056-0.169-0.232-0.267-0.329-0.404-0.116-0.165-0.24-0.38-0.32-0.569-0.213-0.499-0.32-1.051-0.552-1.549-0.107-0.231-0.293-0.472-0.445-0.684-0.169-0.24-0.356-0.409-0.491-0.693-0.044-0.097-0.107-0.259-0.036-0.365 0.019-0.072 0.056-0.1 0.125-0.12 0.117-0.096 0.447 0.029 0.563 0.083 0.329 0.133 0.607 0.259 0.883 0.445 0.125 0.088 0.26 0.257 0.42 0.301h0.187c0.285 0.063 0.607 0.019 0.873 0.097 0.473 0.152 0.9 0.373 1.283 0.613 1.168 0.741 2.128 1.793 2.78 3.048 0.107 0.205 0.153 0.393 0.251 0.607 0.187 0.44 0.417 0.884 0.607 1.309 0.187 0.42 0.367 0.848 0.635 1.196 0.133 0.187 0.669 0.284 0.909 0.381 0.177 0.080 0.453 0.153 0.613 0.251 0.307 0.187 0.605 0.4 0.893 0.605 0.147 0.101 0.591 0.324 0.617 0.504z"></path>
</symbol>

</defs>
</svg>
